<svg width="1728" height="1117" viewBox="0 0 1728 1117" fill="none" xmlns="http://www.w3.org/2000/svg">
<g clip-path="url(#clip0_1822_475)">
<rect width="1728" height="1117" fill="url(#paint0_linear_1822_475)"/>
<g filter="url(#filter0_f_1822_475)">
<path d="M663 185.081C663.246 184.776 663.457 184.441 663.744 184.169C665.358 182.657 667.035 182.567 668.612 184.16C669.245 184.798 669.044 185.622 668.435 186.211C666.709 187.871 665.444 186.534 664.113 185.631C663.783 185.407 663.379 185.27 663.008 185.092L663 185.081Z" fill="#E7DFE2"/>
</g>
<g filter="url(#filter1_f_1822_475)">
<path d="M71.2786 3.70669C69.9889 4.90965 68.6119 5.86525 67.3691 5.40081C66.6888 5.1448 66.6551 4.31664 67.3409 3.48535C68.7941 1.7288 70.4509 0.886585 71.7719 1.47037C72.3458 1.724 72.0587 2.70879 71.2786 3.70669Z" fill="#5B586F"/>
</g>
<g filter="url(#filter2_f_1822_475)">
<path d="M140.012 51.6575C140.41 52.3033 140.609 53.0224 139.878 53.7425C138.979 54.6238 134.492 54.8054 133.853 54.0124C133.467 53.5327 133.654 52.953 134.126 52.4629C135.639 50.8897 138.774 50.4728 140.012 51.6575Z" fill="#6E677E"/>
</g>
<g filter="url(#filter3_f_1822_475)">
<path d="M153.745 98.1575C154.208 97.5625 154.799 97.1951 155.444 97.3113C157.617 97.7088 159.832 98.0314 161.908 98.6482C163.161 99.0207 162.913 100.367 161.934 101.189C159.457 103.268 154.028 102.027 153.466 99.349C153.396 99.0153 153.644 98.559 153.745 98.1575Z" fill="#716E84"/>
</g>
<g filter="url(#filter4_f_1822_475)">
<path d="M59.9814 75.1263C58.1007 76.7103 56.1579 77.0645 54.5054 75.5809C52.829 74.0739 53.1298 70.8362 55.0286 68.7597C56.9198 66.6875 59.6111 66.3753 61.0971 68.0536C62.5683 69.7096 62.1095 73.0181 59.9814 75.1263Z" fill="#E0E2E3"/>
</g>
<g filter="url(#filter5_f_1822_475)">
<path d="M1508.1 959.727C1509.18 959.577 1510.15 959.859 1510.69 960.789C1512.47 963.928 1514.38 967.03 1515.84 970.314C1516.72 972.298 1515.09 973.614 1513.26 973.404C1508.62 972.873 1504.41 964.729 1506.59 960.819C1506.87 960.331 1507.59 960.085 1508.1 959.727Z" fill="#716E84"/>
</g>
<g filter="url(#filter6_f_1822_475)">
<path d="M1636.61 891.256C1638.57 890.855 1640.6 890.752 1641.84 892.44C1643.22 894.291 1645.8 896.449 1643.29 898.693C1640.4 901.273 1639.08 897.588 1637.07 896.61C1635.01 894.97 1635.61 893.126 1636.61 891.256Z" fill="#665F78"/>
</g>
<g filter="url(#filter7_f_1822_475)">
<path d="M1573.73 939.077C1573.67 940.124 1573.08 940.759 1572.28 940.799C1571.47 940.835 1570.81 940.195 1570.85 939.152C1570.88 938.179 1571.41 937.378 1572.26 937.367C1573.09 937.357 1573.62 938.075 1573.73 939.077Z" fill="#6C7488"/>
</g>
<g filter="url(#filter8_f_1822_475)">
<path d="M1551.25 923.634C1552.35 923.597 1553.39 923.866 1553.55 924.415C1553.62 924.67 1553.08 925.087 1552.5 925.213C1551.28 925.481 1549.86 925.347 1549.38 924.827C1548.94 924.355 1549.45 923.865 1551.25 923.634Z" fill="#605F77"/>
</g>
<g filter="url(#filter9_f_1822_475)">
<path d="M1635.36 891.007C1635.47 893.295 1635.58 895.584 1635.69 897.875C1633.8 895.832 1633.86 893.52 1635.36 891.007Z" fill="#090C14"/>
</g>
<g filter="url(#filter10_f_1822_475)">
<path d="M1718.07 942.518C1714.54 942.121 1712.22 940.168 1712.07 936.359C1711.93 932.492 1715.56 928.964 1719.61 928.79C1723.65 928.613 1726.69 931.533 1726.47 935.373C1726.25 939.168 1722.39 942.588 1718.07 942.518Z" fill="#E0E2E3"/>
</g>
<g filter="url(#filter11_f_1822_475)">
<path d="M1712.07 1058.23C1711.8 1059.67 1711.28 1061.18 1709.81 1060.98C1706.9 1060.58 1704.57 1058.9 1703.56 1055.6C1703.08 1054.03 1703.96 1052.83 1705.31 1052.5C1707.98 1051.85 1711.85 1055.21 1712.07 1058.23Z" fill="#655E76"/>
</g>
<g filter="url(#filter12_f_1822_475)">
<path d="M1606.87 1043.2C1606.61 1044.47 1606.07 1045.58 1604.59 1045.55C1602.78 1045.51 1598.06 1040.23 1598.23 1038.49C1598.33 1037.44 1599.12 1036.97 1600.1 1036.96C1603.25 1036.92 1606.84 1040.26 1606.87 1043.2Z" fill="#6E677E"/>
</g>
<g filter="url(#filter13_f_1822_475)">
<path d="M1647.95 1036.96C1646.1 1036.82 1644.63 1035.62 1644.37 1033.23C1644.15 1031.14 1645.32 1029.87 1646.96 1030.13C1648.73 1030.41 1650.04 1031.67 1650.11 1034.27C1650.16 1036.11 1649.03 1036.57 1647.95 1036.96Z" fill="#646177"/>
</g>
<g filter="url(#filter14_f_1822_475)">
<path d="M1652.99 975.576C1652.82 976.357 1652.1 977.014 1650.71 976.833C1649.48 976.674 1648.59 976.021 1648.67 975.004C1648.75 973.918 1649.83 973.346 1651.09 973.439C1652.33 973.531 1652.95 974.325 1652.99 975.576Z" fill="#6F6C81"/>
</g>
<g filter="url(#filter15_f_1822_475)">
<path d="M1724.35 810.313C1721.15 814.142 1717.55 815.096 1713.31 811.449C1711.55 809.025 1711.84 806.549 1713.08 804.055L1713.02 804.008C1713.78 803.546 1714.62 803.357 1715.55 803.465C1717.8 805.668 1721.07 805.158 1723.94 805.749C1725.53 807.175 1725.15 808.729 1724.35 810.313Z" fill="#654965"/>
</g>
<g filter="url(#filter16_f_1822_475)">
<path d="M1714.68 803.907C1713.81 803.778 1712.94 803.645 1712.07 803.512C1714.2 799.942 1717.39 798.981 1721.04 801.143C1724.74 803.339 1726.61 806.371 1723.39 810.301C1722.82 808.782 1722.24 807.266 1721.66 805.747C1719.01 806.202 1716.59 805.858 1714.68 803.907Z" fill="#515069"/>
</g>
<g filter="url(#filter17_f_1822_475)">
<path d="M1713.37 805.151C1713.42 807.439 1713.47 809.731 1713.51 812.02C1711.67 809.792 1711.56 807.507 1713.37 805.151Z" fill="#515069"/>
</g>
<g filter="url(#filter18_f_1822_475)">
<path d="M1715.32 805.289C1717.38 804.898 1719.21 805.305 1720.72 806.809C1720.16 808.561 1719.64 810.657 1717.24 810.249C1714.17 809.728 1714.95 807.336 1715.32 805.289Z" fill="#DBD4D8"/>
</g>
<g filter="url(#filter19_f_1822_475)">
<path d="M551.389 92.5411C551.411 93.0942 550.846 93.8464 549.735 93.9776C548.073 94.1754 547.071 93.3851 547.066 92.0836C547.058 91.1177 547.987 90.5251 549.163 90.5767C550.291 90.6256 551.103 91.2112 551.389 92.5411Z" fill="#E1EBEA"/>
</g>
<g filter="url(#filter20_f_1822_475)">
<path d="M245.101 162.727C246.18 162.577 247.155 162.859 247.686 163.789C249.472 166.928 251.378 170.03 252.841 173.314C253.724 175.298 252.09 176.614 250.255 176.404C245.616 175.873 241.409 167.729 243.594 163.819C243.866 163.331 244.585 163.085 245.101 162.727Z" fill="#716E84"/>
</g>
<g filter="url(#filter21_f_1822_475)">
<path d="M373.607 94.256C375.566 93.8546 377.597 93.7519 378.844 95.4405C380.217 97.2915 382.795 99.4493 380.289 101.693C377.403 104.273 376.075 100.588 374.075 99.6103C372.014 97.9704 372.615 96.1262 373.607 94.256Z" fill="#665F78"/>
</g>
<g filter="url(#filter22_f_1822_475)">
<path d="M310.73 142.077C310.666 143.124 310.078 143.759 309.283 143.799C308.466 143.835 307.814 143.195 307.849 142.152C307.878 141.179 308.409 140.378 309.261 140.367C310.091 140.357 310.615 141.075 310.73 142.077Z" fill="#6C7488"/>
</g>
<g filter="url(#filter23_f_1822_475)">
<path d="M288.254 126.634C289.347 126.597 290.393 126.866 290.547 127.415C290.619 127.67 290.078 128.087 289.496 128.213C288.28 128.481 286.858 128.347 286.379 127.827C285.941 127.355 286.446 126.865 288.254 126.634Z" fill="#605F77"/>
</g>
<g filter="url(#filter24_f_1822_475)">
<path d="M372.365 94.0066C372.475 96.2953 372.585 98.5845 372.695 100.875C370.803 98.8321 370.86 96.5196 372.365 94.0066Z" fill="#090C14"/>
</g>
<g filter="url(#filter25_f_1822_475)">
<path d="M455.073 145.518C451.545 145.121 449.219 143.168 449.074 139.359C448.93 135.492 452.562 131.964 456.614 131.79C460.654 131.613 463.694 134.533 463.469 138.373C463.253 142.168 459.389 145.588 455.073 145.518Z" fill="#E0E2E3"/>
</g>
<g filter="url(#filter26_f_1822_475)">
<path d="M449.072 261.231C448.798 262.673 448.275 264.185 446.813 263.982C443.904 263.576 441.568 261.898 440.559 258.605C440.077 257.026 440.958 255.826 442.31 255.496C444.982 254.846 448.849 258.209 449.072 261.231Z" fill="#655E76"/>
</g>
<g filter="url(#filter27_f_1822_475)">
<path d="M343.873 246.201C343.611 247.466 343.073 248.575 341.594 248.546C339.78 248.506 335.061 243.228 335.231 241.491C335.334 240.441 336.119 239.973 337.1 239.962C340.245 239.921 343.84 243.259 343.873 246.201Z" fill="#6E677E"/>
</g>
<g filter="url(#filter28_f_1822_475)">
<path d="M557.188 231.375C554.649 231.243 552.276 230.707 551.498 228.626C551.074 227.484 551.891 226.446 553.438 226.286C556.712 225.952 559.251 226.967 559.985 229.288C560.304 230.296 559.002 231.129 557.188 231.375Z" fill="#5B586F"/>
</g>
<g filter="url(#filter29_f_1822_475)">
<path d="M384.95 239.961C383.105 239.816 381.631 238.619 381.371 236.231C381.148 234.141 382.324 232.868 383.956 233.126C385.734 233.406 387.035 234.665 387.106 237.27C387.157 239.108 386.028 239.571 384.95 239.961Z" fill="#646177"/>
</g>
<g filter="url(#filter30_f_1822_475)">
<path d="M503.902 248.548C505.664 248.826 506.869 249.754 506.697 251.461C506.515 253.245 504.989 253.876 503.223 253.658C501.958 253.5 500.959 252.69 500.949 251.42C500.944 249.722 502.037 248.782 503.902 248.548Z" fill="#4B4D65"/>
</g>
<g filter="url(#filter31_f_1822_475)">
<path d="M620.591 191.882C621.129 191.917 621.956 192.61 621.997 193.579C622.039 194.565 621.227 195.353 619.918 195.315C618.697 195.28 617.676 194.627 617.676 193.606C617.676 192.633 618.497 191.907 620.591 191.882Z" fill="#717285"/>
</g>
<g filter="url(#filter32_f_1822_475)">
<path d="M389.987 178.576C389.823 179.357 389.102 180.014 387.706 179.833C386.484 179.674 385.594 179.021 385.668 178.004C385.753 176.918 386.825 176.346 388.086 176.439C389.327 176.531 389.954 177.325 389.987 178.576Z" fill="#6F6C81"/>
</g>
<g filter="url(#filter33_f_1822_475)">
<path d="M461.347 13.3128C458.152 17.1415 454.553 18.0955 450.31 14.4488C448.554 12.0247 448.838 9.54926 450.077 7.05527L450.018 7.00833C450.781 6.54644 451.622 6.35717 452.547 6.46527C454.804 8.66771 458.071 8.1585 460.935 8.74887C462.526 10.1749 462.153 11.7288 461.347 13.3128Z" fill="#654965"/>
</g>
<g filter="url(#filter34_f_1822_475)">
<path d="M451.675 6.90691C450.806 6.77826 449.936 6.6449 449.07 6.51154C451.2 2.94179 454.391 1.9812 458.036 4.14282C461.739 6.33856 463.606 9.37057 460.394 13.3008C459.817 11.7824 459.24 10.2656 458.663 8.7473C456.007 9.20229 453.593 8.85751 451.675 6.90691Z" fill="#515069"/>
</g>
<g filter="url(#filter35_f_1822_475)">
<path d="M450.371 8.15111C450.419 10.4393 450.465 12.7313 450.511 15.0195C448.669 12.7921 448.562 10.5066 450.371 8.15111Z" fill="#515069"/>
</g>
<g filter="url(#filter36_f_1822_475)">
<path d="M452.318 8.28896C454.377 7.89797 456.206 8.30549 457.717 9.80889C457.157 11.5614 456.635 13.6566 454.239 13.2494C451.171 12.7279 451.954 10.3363 452.318 8.28896Z" fill="#DBD4D8"/>
</g>
<g filter="url(#filter37_f_1822_475)">
<path d="M221.062 1048.2C219.789 1048.33 218.691 1047.8 218.189 1046.31C216.503 1041.28 214.674 1036.29 213.383 1031.06C212.603 1027.91 214.667 1026.02 216.773 1026.52C222.1 1027.77 225.978 1040.79 222.949 1046.65C222.573 1047.38 221.706 1047.69 221.062 1048.2Z" fill="#716E84"/>
</g>
<g filter="url(#filter38_f_1822_475)">
<path d="M142.196 1074.08C142.401 1072.47 143.164 1071.54 144.093 1071.55C145.047 1071.57 145.725 1072.62 145.555 1074.23C145.4 1075.74 144.683 1076.93 143.691 1076.87C142.725 1076.81 142.205 1075.65 142.196 1074.08Z" fill="#6C7488"/>
</g>
<g filter="url(#filter39_f_1822_475)">
<path d="M166.402 1100.12C165.128 1100.07 163.945 1099.56 163.834 1098.69C163.782 1098.29 164.463 1097.69 165.156 1097.55C166.603 1097.25 168.239 1097.59 168.731 1098.44C169.182 1099.21 168.534 1099.93 166.402 1100.12Z" fill="#605F77"/>
</g>
<g filter="url(#filter40_f_1822_475)">
<path d="M-3.7953 876.45C-3.29695 874.24 -2.50084 871.945 -0.82646 872.397C2.50551 873.297 5.01172 876.117 5.77432 881.316C6.13854 883.808 4.965 885.586 3.35158 885.972C0.16442 886.729 -3.91244 881.154 -3.7953 876.45Z" fill="#655E76"/>
</g>
<g filter="url(#filter41_f_1822_475)">
<path d="M116.636 909.578C117.098 907.642 117.862 905.973 119.577 906.156C121.681 906.388 126.51 915.01 126.096 917.687C125.846 919.305 124.874 919.957 123.733 919.883C120.072 919.652 116.308 914.143 116.636 909.578Z" fill="#6E677E"/>
</g>
<g filter="url(#filter42_f_1822_475)">
<path d="M68.1044 915.413C70.2317 915.809 71.7956 917.803 71.8007 921.529C71.7997 924.79 70.2737 926.654 68.4081 926.102C66.3763 925.501 65.0204 923.428 65.2623 919.384C65.4323 916.53 66.8025 915.916 68.1044 915.413Z" fill="#646177"/>
</g>
<g filter="url(#filter43_f_1822_475)">
<path d="M54.6028 1010.1C54.8907 1008.9 55.8112 1007.95 57.4113 1008.36C58.8128 1008.72 59.7662 1009.82 59.5523 1011.39C59.3191 1013.06 58.0008 1013.85 56.5474 1013.59C55.1159 1013.33 54.4851 1012.04 54.6028 1010.1Z" fill="#6F6C81"/>
</g>
<g filter="url(#filter44_f_1822_475)">
<path d="M942.205 972.45C942.703 970.24 943.499 967.945 945.174 968.397C948.506 969.297 951.012 972.117 951.774 977.316C952.139 979.808 950.965 981.586 949.352 981.972C946.164 982.729 942.088 977.154 942.205 972.45Z" fill="#655E76"/>
</g>
<g filter="url(#filter45_f_1822_475)">
<path d="M1062.64 1005.58C1063.1 1003.64 1063.86 1001.97 1065.58 1002.16C1067.68 1002.39 1072.51 1011.01 1072.1 1013.69C1071.85 1015.3 1070.87 1015.96 1069.73 1015.88C1066.07 1015.65 1062.31 1010.14 1062.64 1005.58Z" fill="#6E677E"/>
</g>
<g filter="url(#filter46_f_1822_475)">
<path d="M812.795 1008.63C815.73 1009.07 818.422 1010.12 819.067 1013.42C819.418 1015.23 818.339 1016.76 816.52 1016.87C812.673 1017.08 809.848 1015.27 809.283 1011.6C809.038 1010.01 810.656 1008.84 812.795 1008.63Z" fill="#5B586F"/>
</g>
<g filter="url(#filter47_f_1822_475)">
<path d="M1014.1 1011.41C1016.23 1011.81 1017.8 1013.8 1017.8 1017.53C1017.8 1020.79 1016.27 1022.65 1014.41 1022.1C1012.38 1021.5 1011.02 1019.43 1011.26 1015.38C1011.43 1012.53 1012.8 1011.92 1014.1 1011.41Z" fill="#646177"/>
</g>
<g filter="url(#filter48_f_1822_475)">
<path d="M876.887 986.991C874.873 986.395 873.587 984.844 874 982.214C874.434 979.466 876.286 978.629 878.313 979.133C879.763 979.496 880.824 980.845 880.677 982.814C880.471 985.446 879.084 986.801 876.887 986.991Z" fill="#4B4D65"/>
</g>
<g filter="url(#filter49_f_1822_475)">
<path d="M734.168 1063.93C733.546 1063.82 732.672 1062.67 732.744 1061.16C732.818 1059.63 733.861 1058.49 735.378 1058.67C736.793 1058.84 737.898 1059.94 737.771 1061.53C737.65 1063.04 736.605 1064.08 734.168 1063.93Z" fill="#717285"/>
</g>
<g filter="url(#filter50_f_1822_475)">
<path d="M1000.6 1106.1C1000.89 1104.9 1001.81 1103.95 1003.41 1104.36C1004.81 1104.72 1005.77 1105.82 1005.55 1107.39C1005.32 1109.06 1004 1109.85 1002.55 1109.59C1001.12 1109.33 1000.49 1108.04 1000.6 1106.1Z" fill="#6F6C81"/>
</g>
<g filter="url(#filter51_f_1822_475)">
<path d="M382.725 1102.66C378.987 1102.53 375.493 1101.98 374.347 1099.86C373.723 1098.69 374.927 1097.63 377.204 1097.46C382.024 1097.12 385.762 1098.16 386.843 1100.53C387.313 1101.56 385.395 1102.41 382.725 1102.66Z" fill="#5B586F"/>
</g>
<g filter="url(#filter52_f_1822_475)">
<path d="M485.049 1036.14C488.08 1035.74 490.774 1036.16 492.999 1037.69C492.173 1039.48 491.406 1041.63 487.877 1041.21C483.36 1040.68 484.513 1038.23 485.049 1036.14Z" fill="#DBD4D8"/>
</g>
</g>
<defs>
<filter id="filter0_f_1822_475" x="659" y="179" width="14" height="12" filterUnits="userSpaceOnUse" color-interpolation-filters="sRGB">
<feFlood flood-opacity="0" result="BackgroundImageFix"/>
<feBlend mode="normal" in="SourceGraphic" in2="BackgroundImageFix" result="shape"/>
<feGaussianBlur stdDeviation="2" result="effect1_foregroundBlur_1822_475"/>
</filter>
<filter id="filter1_f_1822_475" x="62.8438" y="-2.71484" width="13.2305" height="12.2344" filterUnits="userSpaceOnUse" color-interpolation-filters="sRGB">
<feFlood flood-opacity="0" result="BackgroundImageFix"/>
<feBlend mode="normal" in="SourceGraphic" in2="BackgroundImageFix" result="shape"/>
<feGaussianBlur stdDeviation="2" result="effect1_foregroundBlur_1822_475"/>
</filter>
<filter id="filter2_f_1822_475" x="129.645" y="46.9766" width="14.7227" height="11.5391" filterUnits="userSpaceOnUse" color-interpolation-filters="sRGB">
<feFlood flood-opacity="0" result="BackgroundImageFix"/>
<feBlend mode="normal" in="SourceGraphic" in2="BackgroundImageFix" result="shape"/>
<feGaussianBlur stdDeviation="2" result="effect1_foregroundBlur_1822_475"/>
</filter>
<filter id="filter3_f_1822_475" x="149.453" y="93.2891" width="17.3086" height="12.9453" filterUnits="userSpaceOnUse" color-interpolation-filters="sRGB">
<feFlood flood-opacity="0" result="BackgroundImageFix"/>
<feBlend mode="normal" in="SourceGraphic" in2="BackgroundImageFix" result="shape"/>
<feGaussianBlur stdDeviation="2" result="effect1_foregroundBlur_1822_475"/>
</filter>
<filter id="filter4_f_1822_475" x="49.4102" y="62.9727" width="16.543" height="17.5508" filterUnits="userSpaceOnUse" color-interpolation-filters="sRGB">
<feFlood flood-opacity="0" result="BackgroundImageFix"/>
<feBlend mode="normal" in="SourceGraphic" in2="BackgroundImageFix" result="shape"/>
<feGaussianBlur stdDeviation="2" result="effect1_foregroundBlur_1822_475"/>
</filter>
<filter id="filter5_f_1822_475" x="1502" y="955.688" width="18.0859" height="21.7383" filterUnits="userSpaceOnUse" color-interpolation-filters="sRGB">
<feFlood flood-opacity="0" result="BackgroundImageFix"/>
<feBlend mode="normal" in="SourceGraphic" in2="BackgroundImageFix" result="shape"/>
<feGaussianBlur stdDeviation="2" result="effect1_foregroundBlur_1822_475"/>
</filter>
<filter id="filter6_f_1822_475" x="1631.7" y="887.008" width="16.6445" height="16.5859" filterUnits="userSpaceOnUse" color-interpolation-filters="sRGB">
<feFlood flood-opacity="0" result="BackgroundImageFix"/>
<feBlend mode="normal" in="SourceGraphic" in2="BackgroundImageFix" result="shape"/>
<feGaussianBlur stdDeviation="2" result="effect1_foregroundBlur_1822_475"/>
</filter>
<filter id="filter7_f_1822_475" x="1566.85" y="933.367" width="10.8828" height="11.4336" filterUnits="userSpaceOnUse" color-interpolation-filters="sRGB">
<feFlood flood-opacity="0" result="BackgroundImageFix"/>
<feBlend mode="normal" in="SourceGraphic" in2="BackgroundImageFix" result="shape"/>
<feGaussianBlur stdDeviation="2" result="effect1_foregroundBlur_1822_475"/>
</filter>
<filter id="filter8_f_1822_475" x="1545.23" y="919.629" width="12.3242" height="9.71875" filterUnits="userSpaceOnUse" color-interpolation-filters="sRGB">
<feFlood flood-opacity="0" result="BackgroundImageFix"/>
<feBlend mode="normal" in="SourceGraphic" in2="BackgroundImageFix" result="shape"/>
<feGaussianBlur stdDeviation="2" result="effect1_foregroundBlur_1822_475"/>
</filter>
<filter id="filter9_f_1822_475" x="1630.25" y="887.008" width="9.44141" height="14.8672" filterUnits="userSpaceOnUse" color-interpolation-filters="sRGB">
<feFlood flood-opacity="0" result="BackgroundImageFix"/>
<feBlend mode="normal" in="SourceGraphic" in2="BackgroundImageFix" result="shape"/>
<feGaussianBlur stdDeviation="2" result="effect1_foregroundBlur_1822_475"/>
</filter>
<filter id="filter10_f_1822_475" x="1708.07" y="924.781" width="22.4102" height="21.7383" filterUnits="userSpaceOnUse" color-interpolation-filters="sRGB">
<feFlood flood-opacity="0" result="BackgroundImageFix"/>
<feBlend mode="normal" in="SourceGraphic" in2="BackgroundImageFix" result="shape"/>
<feGaussianBlur stdDeviation="2" result="effect1_foregroundBlur_1822_475"/>
</filter>
<filter id="filter11_f_1822_475" x="1699.43" y="1048.41" width="16.6445" height="16.5859" filterUnits="userSpaceOnUse" color-interpolation-filters="sRGB">
<feFlood flood-opacity="0" result="BackgroundImageFix"/>
<feBlend mode="normal" in="SourceGraphic" in2="BackgroundImageFix" result="shape"/>
<feGaussianBlur stdDeviation="2" result="effect1_foregroundBlur_1822_475"/>
</filter>
<filter id="filter12_f_1822_475" x="1594.23" y="1032.96" width="16.6445" height="16.5859" filterUnits="userSpaceOnUse" color-interpolation-filters="sRGB">
<feFlood flood-opacity="0" result="BackgroundImageFix"/>
<feBlend mode="normal" in="SourceGraphic" in2="BackgroundImageFix" result="shape"/>
<feGaussianBlur stdDeviation="2" result="effect1_foregroundBlur_1822_475"/>
</filter>
<filter id="filter13_f_1822_475" x="1640.34" y="1026.09" width="13.7656" height="14.8672" filterUnits="userSpaceOnUse" color-interpolation-filters="sRGB">
<feFlood flood-opacity="0" result="BackgroundImageFix"/>
<feBlend mode="normal" in="SourceGraphic" in2="BackgroundImageFix" result="shape"/>
<feGaussianBlur stdDeviation="2" result="effect1_foregroundBlur_1822_475"/>
</filter>
<filter id="filter14_f_1822_475" x="1644.66" y="969.43" width="12.3242" height="11.4336" filterUnits="userSpaceOnUse" color-interpolation-filters="sRGB">
<feFlood flood-opacity="0" result="BackgroundImageFix"/>
<feBlend mode="normal" in="SourceGraphic" in2="BackgroundImageFix" result="shape"/>
<feGaussianBlur stdDeviation="2" result="effect1_foregroundBlur_1822_475"/>
</filter>
<filter id="filter15_f_1822_475" x="1708.07" y="799.438" width="20.9688" height="18.3008" filterUnits="userSpaceOnUse" color-interpolation-filters="sRGB">
<feFlood flood-opacity="0" result="BackgroundImageFix"/>
<feBlend mode="normal" in="SourceGraphic" in2="BackgroundImageFix" result="shape"/>
<feGaussianBlur stdDeviation="2" result="effect1_foregroundBlur_1822_475"/>
</filter>
<filter id="filter16_f_1822_475" x="1708.07" y="796" width="20.9688" height="18.3008" filterUnits="userSpaceOnUse" color-interpolation-filters="sRGB">
<feFlood flood-opacity="0" result="BackgroundImageFix"/>
<feBlend mode="normal" in="SourceGraphic" in2="BackgroundImageFix" result="shape"/>
<feGaussianBlur stdDeviation="2" result="effect1_foregroundBlur_1822_475"/>
</filter>
<filter id="filter17_f_1822_475" x="1708.07" y="801.152" width="9.44141" height="14.8672" filterUnits="userSpaceOnUse" color-interpolation-filters="sRGB">
<feFlood flood-opacity="0" result="BackgroundImageFix"/>
<feBlend mode="normal" in="SourceGraphic" in2="BackgroundImageFix" result="shape"/>
<feGaussianBlur stdDeviation="2" result="effect1_foregroundBlur_1822_475"/>
</filter>
<filter id="filter18_f_1822_475" x="1710.95" y="801.148" width="13.7656" height="13.1523" filterUnits="userSpaceOnUse" color-interpolation-filters="sRGB">
<feFlood flood-opacity="0" result="BackgroundImageFix"/>
<feBlend mode="normal" in="SourceGraphic" in2="BackgroundImageFix" result="shape"/>
<feGaussianBlur stdDeviation="2" result="effect1_foregroundBlur_1822_475"/>
</filter>
<filter id="filter19_f_1822_475" x="543.066" y="86.5742" width="12.3242" height="11.4336" filterUnits="userSpaceOnUse" color-interpolation-filters="sRGB">
<feFlood flood-opacity="0" result="BackgroundImageFix"/>
<feBlend mode="normal" in="SourceGraphic" in2="BackgroundImageFix" result="shape"/>
<feGaussianBlur stdDeviation="2" result="effect1_foregroundBlur_1822_475"/>
</filter>
<filter id="filter20_f_1822_475" x="239" y="158.688" width="18.0859" height="21.7383" filterUnits="userSpaceOnUse" color-interpolation-filters="sRGB">
<feFlood flood-opacity="0" result="BackgroundImageFix"/>
<feBlend mode="normal" in="SourceGraphic" in2="BackgroundImageFix" result="shape"/>
<feGaussianBlur stdDeviation="2" result="effect1_foregroundBlur_1822_475"/>
</filter>
<filter id="filter21_f_1822_475" x="368.695" y="90.0078" width="16.6445" height="16.5859" filterUnits="userSpaceOnUse" color-interpolation-filters="sRGB">
<feFlood flood-opacity="0" result="BackgroundImageFix"/>
<feBlend mode="normal" in="SourceGraphic" in2="BackgroundImageFix" result="shape"/>
<feGaussianBlur stdDeviation="2" result="effect1_foregroundBlur_1822_475"/>
</filter>
<filter id="filter22_f_1822_475" x="303.848" y="136.367" width="10.8828" height="11.4336" filterUnits="userSpaceOnUse" color-interpolation-filters="sRGB">
<feFlood flood-opacity="0" result="BackgroundImageFix"/>
<feBlend mode="normal" in="SourceGraphic" in2="BackgroundImageFix" result="shape"/>
<feGaussianBlur stdDeviation="2" result="effect1_foregroundBlur_1822_475"/>
</filter>
<filter id="filter23_f_1822_475" x="282.23" y="122.629" width="12.3242" height="9.71875" filterUnits="userSpaceOnUse" color-interpolation-filters="sRGB">
<feFlood flood-opacity="0" result="BackgroundImageFix"/>
<feBlend mode="normal" in="SourceGraphic" in2="BackgroundImageFix" result="shape"/>
<feGaussianBlur stdDeviation="2" result="effect1_foregroundBlur_1822_475"/>
</filter>
<filter id="filter24_f_1822_475" x="367.254" y="90.0078" width="9.44141" height="14.8672" filterUnits="userSpaceOnUse" color-interpolation-filters="sRGB">
<feFlood flood-opacity="0" result="BackgroundImageFix"/>
<feBlend mode="normal" in="SourceGraphic" in2="BackgroundImageFix" result="shape"/>
<feGaussianBlur stdDeviation="2" result="effect1_foregroundBlur_1822_475"/>
</filter>
<filter id="filter25_f_1822_475" x="445.07" y="127.781" width="22.4102" height="21.7383" filterUnits="userSpaceOnUse" color-interpolation-filters="sRGB">
<feFlood flood-opacity="0" result="BackgroundImageFix"/>
<feBlend mode="normal" in="SourceGraphic" in2="BackgroundImageFix" result="shape"/>
<feGaussianBlur stdDeviation="2" result="effect1_foregroundBlur_1822_475"/>
</filter>
<filter id="filter26_f_1822_475" x="436.426" y="251.414" width="16.6445" height="16.5859" filterUnits="userSpaceOnUse" color-interpolation-filters="sRGB">
<feFlood flood-opacity="0" result="BackgroundImageFix"/>
<feBlend mode="normal" in="SourceGraphic" in2="BackgroundImageFix" result="shape"/>
<feGaussianBlur stdDeviation="2" result="effect1_foregroundBlur_1822_475"/>
</filter>
<filter id="filter27_f_1822_475" x="331.227" y="235.961" width="16.6445" height="16.5859" filterUnits="userSpaceOnUse" color-interpolation-filters="sRGB">
<feFlood flood-opacity="0" result="BackgroundImageFix"/>
<feBlend mode="normal" in="SourceGraphic" in2="BackgroundImageFix" result="shape"/>
<feGaussianBlur stdDeviation="2" result="effect1_foregroundBlur_1822_475"/>
</filter>
<filter id="filter28_f_1822_475" x="547.387" y="222.223" width="16.6445" height="13.1523" filterUnits="userSpaceOnUse" color-interpolation-filters="sRGB">
<feFlood flood-opacity="0" result="BackgroundImageFix"/>
<feBlend mode="normal" in="SourceGraphic" in2="BackgroundImageFix" result="shape"/>
<feGaussianBlur stdDeviation="2" result="effect1_foregroundBlur_1822_475"/>
</filter>
<filter id="filter29_f_1822_475" x="377.344" y="229.094" width="13.7656" height="14.8672" filterUnits="userSpaceOnUse" color-interpolation-filters="sRGB">
<feFlood flood-opacity="0" result="BackgroundImageFix"/>
<feBlend mode="normal" in="SourceGraphic" in2="BackgroundImageFix" result="shape"/>
<feGaussianBlur stdDeviation="2" result="effect1_foregroundBlur_1822_475"/>
</filter>
<filter id="filter30_f_1822_475" x="496.949" y="244.547" width="13.7656" height="13.1523" filterUnits="userSpaceOnUse" color-interpolation-filters="sRGB">
<feFlood flood-opacity="0" result="BackgroundImageFix"/>
<feBlend mode="normal" in="SourceGraphic" in2="BackgroundImageFix" result="shape"/>
<feGaussianBlur stdDeviation="2" result="effect1_foregroundBlur_1822_475"/>
</filter>
<filter id="filter31_f_1822_475" x="613.676" y="187.883" width="12.3242" height="11.4336" filterUnits="userSpaceOnUse" color-interpolation-filters="sRGB">
<feFlood flood-opacity="0" result="BackgroundImageFix"/>
<feBlend mode="normal" in="SourceGraphic" in2="BackgroundImageFix" result="shape"/>
<feGaussianBlur stdDeviation="2" result="effect1_foregroundBlur_1822_475"/>
</filter>
<filter id="filter32_f_1822_475" x="381.664" y="172.43" width="12.3242" height="11.4336" filterUnits="userSpaceOnUse" color-interpolation-filters="sRGB">
<feFlood flood-opacity="0" result="BackgroundImageFix"/>
<feBlend mode="normal" in="SourceGraphic" in2="BackgroundImageFix" result="shape"/>
<feGaussianBlur stdDeviation="2" result="effect1_foregroundBlur_1822_475"/>
</filter>
<filter id="filter33_f_1822_475" x="445.07" y="2.4375" width="20.9688" height="18.3008" filterUnits="userSpaceOnUse" color-interpolation-filters="sRGB">
<feFlood flood-opacity="0" result="BackgroundImageFix"/>
<feBlend mode="normal" in="SourceGraphic" in2="BackgroundImageFix" result="shape"/>
<feGaussianBlur stdDeviation="2" result="effect1_foregroundBlur_1822_475"/>
</filter>
<filter id="filter34_f_1822_475" x="445.07" y="-1" width="20.9688" height="18.3008" filterUnits="userSpaceOnUse" color-interpolation-filters="sRGB">
<feFlood flood-opacity="0" result="BackgroundImageFix"/>
<feBlend mode="normal" in="SourceGraphic" in2="BackgroundImageFix" result="shape"/>
<feGaussianBlur stdDeviation="2" result="effect1_foregroundBlur_1822_475"/>
</filter>
<filter id="filter35_f_1822_475" x="445.07" y="4.15234" width="9.44141" height="14.8672" filterUnits="userSpaceOnUse" color-interpolation-filters="sRGB">
<feFlood flood-opacity="0" result="BackgroundImageFix"/>
<feBlend mode="normal" in="SourceGraphic" in2="BackgroundImageFix" result="shape"/>
<feGaussianBlur stdDeviation="2" result="effect1_foregroundBlur_1822_475"/>
</filter>
<filter id="filter36_f_1822_475" x="447.953" y="4.14844" width="13.7656" height="13.1523" filterUnits="userSpaceOnUse" color-interpolation-filters="sRGB">
<feFlood flood-opacity="0" result="BackgroundImageFix"/>
<feBlend mode="normal" in="SourceGraphic" in2="BackgroundImageFix" result="shape"/>
<feGaussianBlur stdDeviation="2" result="effect1_foregroundBlur_1822_475"/>
</filter>
<filter id="filter37_f_1822_475" x="209.215" y="1022.44" width="18.7969" height="29.7812" filterUnits="userSpaceOnUse" color-interpolation-filters="sRGB">
<feFlood flood-opacity="0" result="BackgroundImageFix"/>
<feBlend mode="normal" in="SourceGraphic" in2="BackgroundImageFix" result="shape"/>
<feGaussianBlur stdDeviation="2" result="effect1_foregroundBlur_1822_475"/>
</filter>
<filter id="filter38_f_1822_475" x="138.195" y="1067.55" width="11.3867" height="13.3281" filterUnits="userSpaceOnUse" color-interpolation-filters="sRGB">
<feFlood flood-opacity="0" result="BackgroundImageFix"/>
<feBlend mode="normal" in="SourceGraphic" in2="BackgroundImageFix" result="shape"/>
<feGaussianBlur stdDeviation="2" result="effect1_foregroundBlur_1822_475"/>
</filter>
<filter id="filter39_f_1822_475" x="159.832" y="1093.45" width="13.0352" height="10.6719" filterUnits="userSpaceOnUse" color-interpolation-filters="sRGB">
<feFlood flood-opacity="0" result="BackgroundImageFix"/>
<feBlend mode="normal" in="SourceGraphic" in2="BackgroundImageFix" result="shape"/>
<feGaussianBlur stdDeviation="2" result="effect1_foregroundBlur_1822_475"/>
</filter>
<filter id="filter40_f_1822_475" x="-7.79688" y="868.34" width="17.6367" height="21.7031" filterUnits="userSpaceOnUse" color-interpolation-filters="sRGB">
<feFlood flood-opacity="0" result="BackgroundImageFix"/>
<feBlend mode="normal" in="SourceGraphic" in2="BackgroundImageFix" result="shape"/>
<feGaussianBlur stdDeviation="2" result="effect1_foregroundBlur_1822_475"/>
</filter>
<filter id="filter41_f_1822_475" x="112.617" y="902.141" width="17.5039" height="21.75" filterUnits="userSpaceOnUse" color-interpolation-filters="sRGB">
<feFlood flood-opacity="0" result="BackgroundImageFix"/>
<feBlend mode="normal" in="SourceGraphic" in2="BackgroundImageFix" result="shape"/>
<feGaussianBlur stdDeviation="2" result="effect1_foregroundBlur_1822_475"/>
</filter>
<filter id="filter42_f_1822_475" x="61.2344" y="911.414" width="14.5664" height="18.7852" filterUnits="userSpaceOnUse" color-interpolation-filters="sRGB">
<feFlood flood-opacity="0" result="BackgroundImageFix"/>
<feBlend mode="normal" in="SourceGraphic" in2="BackgroundImageFix" result="shape"/>
<feGaussianBlur stdDeviation="2" result="effect1_foregroundBlur_1822_475"/>
</filter>
<filter id="filter43_f_1822_475" x="50.5898" y="1004.27" width="12.9922" height="13.375" filterUnits="userSpaceOnUse" color-interpolation-filters="sRGB">
<feFlood flood-opacity="0" result="BackgroundImageFix"/>
<feBlend mode="normal" in="SourceGraphic" in2="BackgroundImageFix" result="shape"/>
<feGaussianBlur stdDeviation="2" result="effect1_foregroundBlur_1822_475"/>
</filter>
<filter id="filter44_f_1822_475" x="938.203" y="964.34" width="17.6367" height="21.7031" filterUnits="userSpaceOnUse" color-interpolation-filters="sRGB">
<feFlood flood-opacity="0" result="BackgroundImageFix"/>
<feBlend mode="normal" in="SourceGraphic" in2="BackgroundImageFix" result="shape"/>
<feGaussianBlur stdDeviation="2" result="effect1_foregroundBlur_1822_475"/>
</filter>
<filter id="filter45_f_1822_475" x="1058.62" y="998.141" width="17.5039" height="21.75" filterUnits="userSpaceOnUse" color-interpolation-filters="sRGB">
<feFlood flood-opacity="0" result="BackgroundImageFix"/>
<feBlend mode="normal" in="SourceGraphic" in2="BackgroundImageFix" result="shape"/>
<feGaussianBlur stdDeviation="2" result="effect1_foregroundBlur_1822_475"/>
</filter>
<filter id="filter46_f_1822_475" x="805.258" y="1004.63" width="17.875" height="16.2578" filterUnits="userSpaceOnUse" color-interpolation-filters="sRGB">
<feFlood flood-opacity="0" result="BackgroundImageFix"/>
<feBlend mode="normal" in="SourceGraphic" in2="BackgroundImageFix" result="shape"/>
<feGaussianBlur stdDeviation="2" result="effect1_foregroundBlur_1822_475"/>
</filter>
<filter id="filter47_f_1822_475" x="1007.23" y="1007.41" width="14.5664" height="18.7852" filterUnits="userSpaceOnUse" color-interpolation-filters="sRGB">
<feFlood flood-opacity="0" result="BackgroundImageFix"/>
<feBlend mode="normal" in="SourceGraphic" in2="BackgroundImageFix" result="shape"/>
<feGaussianBlur stdDeviation="2" result="effect1_foregroundBlur_1822_475"/>
</filter>
<filter id="filter48_f_1822_475" x="869.922" y="974.996" width="14.7695" height="15.9961" filterUnits="userSpaceOnUse" color-interpolation-filters="sRGB">
<feFlood flood-opacity="0" result="BackgroundImageFix"/>
<feBlend mode="normal" in="SourceGraphic" in2="BackgroundImageFix" result="shape"/>
<feGaussianBlur stdDeviation="2" result="effect1_foregroundBlur_1822_475"/>
</filter>
<filter id="filter49_f_1822_475" x="728.738" y="1054.65" width="13.043" height="13.293" filterUnits="userSpaceOnUse" color-interpolation-filters="sRGB">
<feFlood flood-opacity="0" result="BackgroundImageFix"/>
<feBlend mode="normal" in="SourceGraphic" in2="BackgroundImageFix" result="shape"/>
<feGaussianBlur stdDeviation="2" result="effect1_foregroundBlur_1822_475"/>
</filter>
<filter id="filter50_f_1822_475" x="996.59" y="1100.27" width="12.9922" height="13.375" filterUnits="userSpaceOnUse" color-interpolation-filters="sRGB">
<feFlood flood-opacity="0" result="BackgroundImageFix"/>
<feBlend mode="normal" in="SourceGraphic" in2="BackgroundImageFix" result="shape"/>
<feGaussianBlur stdDeviation="2" result="effect1_foregroundBlur_1822_475"/>
</filter>
<filter id="filter51_f_1822_475" x="370.184" y="1093.4" width="20.7305" height="13.2617" filterUnits="userSpaceOnUse" color-interpolation-filters="sRGB">
<feFlood flood-opacity="0" result="BackgroundImageFix"/>
<feBlend mode="normal" in="SourceGraphic" in2="BackgroundImageFix" result="shape"/>
<feGaussianBlur stdDeviation="2" result="effect1_foregroundBlur_1822_475"/>
</filter>
<filter id="filter52_f_1822_475" x="480.512" y="1032" width="16.4883" height="13.2617" filterUnits="userSpaceOnUse" color-interpolation-filters="sRGB">
<feFlood flood-opacity="0" result="BackgroundImageFix"/>
<feBlend mode="normal" in="SourceGraphic" in2="BackgroundImageFix" result="shape"/>
<feGaussianBlur stdDeviation="2" result="effect1_foregroundBlur_1822_475"/>
</filter>
<linearGradient id="paint0_linear_1822_475" x1="1702" y1="31.5001" x2="1.94478e-05" y2="1162" gradientUnits="userSpaceOnUse">
<stop stop-color="#12051A"/>
<stop offset="1" stop-color="#03002B"/>
</linearGradient>
<clipPath id="clip0_1822_475">
<rect width="1728" height="1117" fill="white"/>
</clipPath>
</defs>
</svg>
