<svg width="2560" height="904" viewBox="0 0 2560 904" fill="none" xmlns="http://www.w3.org/2000/svg">
<path d="M84.7068 569.127L0 576.944V743.598H840.541L1021.22 728.553L809.917 633.068L738.319 539.525L542.005 443.615L430.765 457.389L352.619 431.775" fill="#2F005B"/>
<mask id="mask0_1827_368" style="mask-type:luminance" maskUnits="userSpaceOnUse" x="0" y="431" width="1022" height="313">
<path d="M84.7068 569.127L0 576.944V743.598H840.541L1021.22 728.553L809.917 633.068L738.319 539.525L542.005 443.615L430.765 457.389L352.619 431.775L84.7068 569.127Z" fill="white"/>
</mask>
<g mask="url(#mask0_1827_368)">
<mask id="mask1_1827_368" style="mask-type:luminance" maskUnits="userSpaceOnUse" x="646" y="578" width="313" height="144">
<path d="M646.684 721.105H958.772V578.69H646.684V721.105Z" fill="white"/>
</mask>
<g mask="url(#mask1_1827_368)">
<mask id="mask2_1827_368" style="mask-type:luminance" maskUnits="userSpaceOnUse" x="646" y="578" width="313" height="144">
<path d="M646.684 721.105H958.772V578.69H646.684V721.105Z" fill="white"/>
</mask>
<g mask="url(#mask2_1827_368)">
<g opacity="0.449997">
<mask id="mask3_1827_368" style="mask-type:luminance" maskUnits="userSpaceOnUse" x="0" y="431" width="1022" height="313">
<path d="M84.7068 569.127L0 576.944V743.598H840.541L1021.22 728.553L809.917 633.068L738.319 539.525L542.005 443.615L430.765 457.389L352.619 431.775L84.7068 569.127Z" fill="white"/>
</mask>
<g mask="url(#mask3_1827_368)">
<mask id="mask4_1827_368" style="mask-type:luminance" maskUnits="userSpaceOnUse" x="646" y="578" width="313" height="144">
<path d="M646.684 721.105H958.772V578.69H646.684V721.105Z" fill="white"/>
</mask>
<g mask="url(#mask4_1827_368)">
<path d="M958.772 721.105L646.684 635.082L692.565 626.233L682.301 578.691L737.42 625.596L926.03 708.097" fill="#682D87"/>
</g>
</g>
</g>
</g>
</g>
</g>
<path d="M427.483 465.448L542.716 451.189L738.317 539.523L542.004 443.614L430.764 457.388L352.617 431.773" fill="#682D87"/>
<path d="M796.732 637.746L1021.22 728.555L809.918 633.07L738.32 539.527L796.732 637.746Z" fill="#682D87"/>
<mask id="mask5_1827_368" style="mask-type:luminance" maskUnits="userSpaceOnUse" x="0" y="431" width="1022" height="313">
<path d="M84.7068 569.127L0 576.944V743.598H840.541L1021.22 728.553L809.917 633.068L738.319 539.525L542.005 443.615L430.765 457.389L352.619 431.775L84.7068 569.127Z" fill="white"/>
</mask>
<g mask="url(#mask5_1827_368)">
<mask id="mask6_1827_368" style="mask-type:luminance" maskUnits="userSpaceOnUse" x="342" y="483" width="319" height="125">
<path d="M342.516 607.332H660.753V483.846H342.516V607.332Z" fill="white"/>
</mask>
<g mask="url(#mask6_1827_368)">
<mask id="mask7_1827_368" style="mask-type:luminance" maskUnits="userSpaceOnUse" x="342" y="483" width="319" height="125">
<path d="M342.516 607.332H660.753V483.846H342.516V607.332Z" fill="white"/>
</mask>
<g mask="url(#mask7_1827_368)">
<g opacity="0.449997">
<mask id="mask8_1827_368" style="mask-type:luminance" maskUnits="userSpaceOnUse" x="0" y="431" width="1022" height="313">
<path d="M84.7068 569.127L0 576.944V743.598H840.541L1021.22 728.553L809.917 633.068L738.319 539.525L542.005 443.615L430.765 457.389L352.619 431.775L84.7068 569.127Z" fill="white"/>
</mask>
<g mask="url(#mask8_1827_368)">
<mask id="mask9_1827_368" style="mask-type:luminance" maskUnits="userSpaceOnUse" x="342" y="483" width="319" height="125">
<path d="M342.516 607.332H660.753V483.846H342.516V607.332Z" fill="white"/>
</mask>
<g mask="url(#mask9_1827_368)">
<path d="M342.516 483.846L505.141 498.089L660.753 557.561L476.766 530.684L578.538 607.332L405.696 548.006" fill="#682D87"/>
</g>
</g>
</g>
</g>
</g>
</g>
<path d="M84.7068 569.126L0 576.943V584.562L104.521 573.398L235.436 491.851" fill="#682D87"/>
<path d="M2016.48 573.048L1909.24 583.245L1851.32 561.719L1520.55 702.208L2102.28 792.844L2560 753.578V512.765L2441.17 452.954L2337.87 466.134L2265.29 441.624" fill="#2F005B"/>
<mask id="mask10_1827_368" style="mask-type:luminance" maskUnits="userSpaceOnUse" x="1520" y="441" width="1040" height="352">
<path d="M2016.48 573.048L1909.24 583.245L1851.32 561.719L1520.55 702.207L2102.28 792.844L2560 753.578V512.765L2441.17 452.954L2337.87 466.134L2265.29 441.624L2016.48 573.048Z" fill="white"/>
</mask>
<g mask="url(#mask10_1827_368)">
<mask id="mask11_1827_368" style="mask-type:luminance" maskUnits="userSpaceOnUse" x="2538" y="582" width="291" height="137">
<path d="M2538.39 718.465H2828.23V582.197H2538.39V718.465Z" fill="white"/>
</mask>
<g mask="url(#mask11_1827_368)">
<mask id="mask12_1827_368" style="mask-type:luminance" maskUnits="userSpaceOnUse" x="2538" y="582" width="291" height="137">
<path d="M2538.39 718.465H2828.23V582.197H2538.39V718.465Z" fill="white"/>
</mask>
<g mask="url(#mask12_1827_368)">
<g opacity="0.449997">
<mask id="mask13_1827_368" style="mask-type:luminance" maskUnits="userSpaceOnUse" x="2538" y="582" width="22" height="137">
<path d="M2538.27 718.559H2560V582.174H2538.27V718.559Z" fill="white"/>
</mask>
<g mask="url(#mask13_1827_368)">
<path d="M2828.23 718.465L2538.39 636.153L2581 627.686L2571.47 582.197L2622.65 627.078L2797.83 706.017" fill="#682D87"/>
</g>
</g>
</g>
</g>
</g>
<path d="M2334.83 473.848L2441.84 460.203L2560 515.184V512.766L2441.17 452.956L2337.87 466.136L2265.29 441.626" fill="#682D87"/>
<mask id="mask14_1827_368" style="mask-type:luminance" maskUnits="userSpaceOnUse" x="1520" y="441" width="1040" height="352">
<path d="M2016.48 573.048L1909.24 583.245L1851.32 561.719L1520.55 702.207L2102.28 792.844L2560 753.578V512.765L2441.17 452.954L2337.87 466.134L2265.29 441.624L2016.48 573.048Z" fill="white"/>
</mask>
<g mask="url(#mask14_1827_368)">
<mask id="mask15_1827_368" style="mask-type:luminance" maskUnits="userSpaceOnUse" x="2255" y="491" width="297" height="119">
<path d="M2255.91 609.605H2551.45V491.45H2255.91V609.605Z" fill="white"/>
</mask>
<g mask="url(#mask15_1827_368)">
<mask id="mask16_1827_368" style="mask-type:luminance" maskUnits="userSpaceOnUse" x="2255" y="491" width="297" height="119">
<path d="M2255.91 609.605H2551.45V491.45H2255.91V609.605Z" fill="white"/>
</mask>
<g mask="url(#mask16_1827_368)">
<g opacity="0.449997">
<mask id="mask17_1827_368" style="mask-type:luminance" maskUnits="userSpaceOnUse" x="1520" y="441" width="1040" height="352">
<path d="M2016.48 573.048L1909.24 583.245L1851.32 561.719L1520.55 702.207L2102.28 792.844L2560 753.578V512.765L2441.17 452.954L2337.87 466.134L2265.29 441.624L2016.48 573.048Z" fill="white"/>
</mask>
<g mask="url(#mask17_1827_368)">
<mask id="mask18_1827_368" style="mask-type:luminance" maskUnits="userSpaceOnUse" x="2255" y="491" width="297" height="119">
<path d="M2255.91 609.605H2551.45V491.45H2255.91V609.605Z" fill="white"/>
</mask>
<g mask="url(#mask18_1827_368)">
<path d="M2255.91 491.45L2406.93 505.079L2551.45 561.983L2380.59 536.265L2475.11 609.605L2314.59 552.84" fill="#682D87"/>
</g>
</g>
</g>
</g>
</g>
</g>
<path d="M2156.47 499.11L2016.48 573.05L1909.24 583.246L1851.32 561.721L1788.92 588.227L1813.19 607.312L1904.31 591.506L2034.88 577.138L2156.47 499.11Z" fill="#682D87"/>
<mask id="mask19_1827_368" style="mask-type:luminance" maskUnits="userSpaceOnUse" x="1045" y="138" width="16" height="12">
<path d="M1045.73 149.469H1060.41V138.949H1045.73V149.469Z" fill="white"/>
</mask>
<g mask="url(#mask19_1827_368)">
<mask id="mask20_1827_368" style="mask-type:luminance" maskUnits="userSpaceOnUse" x="1045" y="138" width="16" height="12">
<path d="M1045.73 149.469H1060.41V138.949H1045.73V149.469Z" fill="white"/>
</mask>
<g mask="url(#mask20_1827_368)">
<g opacity="0.5">
<mask id="mask21_1827_368" style="mask-type:luminance" maskUnits="userSpaceOnUse" x="1045" y="138" width="16" height="12">
<path d="M1045.73 149.469H1060.41V138.949H1045.73V149.469Z" fill="white"/>
</mask>
<g mask="url(#mask21_1827_368)">
<path d="M1045.73 144.209C1045.73 147.114 1049.02 149.469 1053.07 149.469C1057.13 149.469 1060.41 147.114 1060.41 144.209C1060.41 141.305 1057.13 138.95 1053.07 138.95C1049.02 138.95 1045.73 141.305 1045.73 144.209Z" fill="#682D87"/>
<path d="M1049.43 144.207C1049.43 145.65 1051.06 146.82 1053.07 146.82C1055.08 146.82 1056.72 145.65 1056.72 144.207C1056.72 142.764 1055.08 141.594 1053.07 141.594C1051.06 141.594 1049.43 142.764 1049.43 144.207Z" fill="#D695FA"/>
</g>
</g>
</g>
</g>
<mask id="mask22_1827_368" style="mask-type:luminance" maskUnits="userSpaceOnUse" x="890" y="179" width="8" height="6">
<path d="M890.578 184.547H897.916V179.287H890.578V184.547Z" fill="white"/>
</mask>
<g mask="url(#mask22_1827_368)">
<mask id="mask23_1827_368" style="mask-type:luminance" maskUnits="userSpaceOnUse" x="890" y="179" width="8" height="6">
<path d="M890.578 184.547H897.915V179.286H890.578V184.547Z" fill="white"/>
</mask>
<g mask="url(#mask23_1827_368)">
<g opacity="0.5">
<mask id="mask24_1827_368" style="mask-type:luminance" maskUnits="userSpaceOnUse" x="890" y="179" width="8" height="6">
<path d="M890.578 184.547H897.916V179.287H890.578V184.547Z" fill="white"/>
</mask>
<g mask="url(#mask24_1827_368)">
<path d="M890.578 181.917C890.578 183.369 892.221 184.547 894.247 184.547C896.273 184.547 897.915 183.369 897.915 181.917C897.915 180.464 896.273 179.286 894.247 179.286C892.221 179.286 890.578 180.464 890.578 181.917Z" fill="#682D87"/>
<path d="M892.426 181.916C892.426 182.638 893.242 183.223 894.248 183.223C895.255 183.223 896.071 182.638 896.071 181.916C896.071 181.195 895.255 180.61 894.248 180.61C893.242 180.61 892.426 181.195 892.426 181.916Z" fill="#D695FA"/>
</g>
</g>
</g>
</g>
<mask id="mask25_1827_368" style="mask-type:luminance" maskUnits="userSpaceOnUse" x="660" y="102" width="7" height="5">
<path d="M660.91 106.727H666.579V102.663H660.91V106.727Z" fill="white"/>
</mask>
<g mask="url(#mask25_1827_368)">
<mask id="mask26_1827_368" style="mask-type:luminance" maskUnits="userSpaceOnUse" x="660" y="102" width="7" height="5">
<path d="M660.91 106.727H666.579V102.663H660.91V106.727Z" fill="white"/>
</mask>
<g mask="url(#mask26_1827_368)">
<g opacity="0.5">
<mask id="mask27_1827_368" style="mask-type:luminance" maskUnits="userSpaceOnUse" x="660" y="102" width="7" height="5">
<path d="M660.91 106.727H666.579V102.663H660.91V106.727Z" fill="white"/>
</mask>
<g mask="url(#mask27_1827_368)">
<path d="M660.91 104.695C660.91 105.817 662.18 106.727 663.745 106.727C665.312 106.727 666.581 105.817 666.581 104.695C666.581 103.573 665.312 102.663 663.745 102.663C662.18 102.663 660.91 103.573 660.91 104.695Z" fill="#682D87"/>
<path d="M662.336 104.694C662.336 105.251 662.967 105.703 663.744 105.703C664.523 105.703 665.152 105.251 665.152 104.694C665.152 104.137 664.523 103.685 663.744 103.685C662.967 103.685 662.336 104.137 662.336 104.694Z" fill="#D695FA"/>
</g>
</g>
</g>
</g>
<mask id="mask28_1827_368" style="mask-type:luminance" maskUnits="userSpaceOnUse" x="520" y="127" width="8" height="6">
<path d="M520.16 132.566H527.499V127.306H520.16V132.566Z" fill="white"/>
</mask>
<g mask="url(#mask28_1827_368)">
<mask id="mask29_1827_368" style="mask-type:luminance" maskUnits="userSpaceOnUse" x="520" y="127" width="8" height="6">
<path d="M520.16 132.566H527.499V127.306H520.16V132.566Z" fill="white"/>
</mask>
<g mask="url(#mask29_1827_368)">
<g opacity="0.5">
<mask id="mask30_1827_368" style="mask-type:luminance" maskUnits="userSpaceOnUse" x="520" y="127" width="8" height="6">
<path d="M520.16 132.566H527.499V127.306H520.16V132.566Z" fill="white"/>
</mask>
<g mask="url(#mask30_1827_368)">
<path d="M520.16 129.936C520.16 131.389 521.804 132.566 523.829 132.566C525.856 132.566 527.499 131.389 527.499 129.936C527.499 128.483 525.856 127.306 523.829 127.306C521.804 127.306 520.16 128.483 520.16 129.936Z" fill="#682D87"/>
<path d="M522.008 129.936C522.008 130.657 522.824 131.242 523.83 131.242C524.838 131.242 525.653 130.657 525.653 129.936C525.653 129.214 524.838 128.629 523.83 128.629C522.824 128.629 522.008 129.214 522.008 129.936Z" fill="#D695FA"/>
</g>
</g>
</g>
</g>
<mask id="mask31_1827_368" style="mask-type:luminance" maskUnits="userSpaceOnUse" x="203" y="228" width="12" height="9">
<path d="M203.02 236.648H214.361V228.52H203.02V236.648Z" fill="white"/>
</mask>
<g mask="url(#mask31_1827_368)">
<mask id="mask32_1827_368" style="mask-type:luminance" maskUnits="userSpaceOnUse" x="203" y="228" width="12" height="9">
<path d="M203.02 236.648H214.361V228.52H203.02V236.648Z" fill="white"/>
</mask>
<g mask="url(#mask32_1827_368)">
<g opacity="0.300003">
<mask id="mask33_1827_368" style="mask-type:luminance" maskUnits="userSpaceOnUse" x="203" y="228" width="12" height="9">
<path d="M203.02 236.648H214.361V228.52H203.02V236.648Z" fill="white"/>
</mask>
<g mask="url(#mask33_1827_368)">
<path d="M203.02 232.584C203.02 234.829 205.558 236.648 208.69 236.648C211.821 236.648 214.36 234.829 214.36 232.584C214.36 230.339 211.821 228.519 208.69 228.519C205.558 228.519 203.02 230.339 203.02 232.584Z" fill="#682D87"/>
<path d="M205.871 232.583C205.871 233.698 207.134 234.602 208.688 234.602C210.243 234.602 211.504 233.698 211.504 232.583C211.504 231.468 210.243 230.564 208.688 230.564C207.134 230.564 205.871 231.468 205.871 232.583Z" fill="#D695FA"/>
</g>
</g>
</g>
</g>
<mask id="mask34_1827_368" style="mask-type:luminance" maskUnits="userSpaceOnUse" x="497" y="609" width="13" height="9">
<path d="M497.918 617.562H509.258V609.433H497.918V617.562Z" fill="white"/>
</mask>
<g mask="url(#mask34_1827_368)">
<mask id="mask35_1827_368" style="mask-type:luminance" maskUnits="userSpaceOnUse" x="497" y="609" width="13" height="9">
<path d="M497.918 617.562H509.258V609.433H497.918V617.562Z" fill="white"/>
</mask>
<g mask="url(#mask35_1827_368)">
<mask id="mask36_1827_368" style="mask-type:luminance" maskUnits="userSpaceOnUse" x="497" y="609" width="13" height="9">
<path d="M497.918 617.562H509.258V609.433H497.918V617.562Z" fill="white"/>
</mask>
<g mask="url(#mask36_1827_368)">
<path d="M497.918 613.498C497.918 615.743 500.457 617.562 503.589 617.562C506.718 617.562 509.258 615.743 509.258 613.498C509.258 611.253 506.718 609.433 503.589 609.433C500.457 609.433 497.918 611.253 497.918 613.498Z" fill="#682D87"/>
<path d="M500.77 613.497C500.77 614.612 502.031 615.516 503.586 615.516C505.142 615.516 506.403 614.612 506.403 613.497C506.403 612.382 505.142 611.479 503.586 611.479C502.031 611.479 500.77 612.382 500.77 613.497Z" fill="#D695FA"/>
</g>
</g>
</g>
<mask id="mask37_1827_368" style="mask-type:luminance" maskUnits="userSpaceOnUse" x="644" y="165" width="12" height="9">
<path d="M644.645 173.543H655.986V165.414H644.645V173.543Z" fill="white"/>
</mask>
<g mask="url(#mask37_1827_368)">
<mask id="mask38_1827_368" style="mask-type:luminance" maskUnits="userSpaceOnUse" x="644" y="165" width="12" height="9">
<path d="M644.645 173.543H655.986V165.413H644.645V173.543Z" fill="white"/>
</mask>
<g mask="url(#mask38_1827_368)">
<g opacity="0.5">
<mask id="mask39_1827_368" style="mask-type:luminance" maskUnits="userSpaceOnUse" x="644" y="165" width="12" height="9">
<path d="M644.645 173.543H655.986V165.414H644.645V173.543Z" fill="white"/>
</mask>
<g mask="url(#mask39_1827_368)">
<path d="M644.645 169.478C644.645 171.723 647.183 173.543 650.315 173.543C653.446 173.543 655.985 171.723 655.985 169.478C655.985 167.233 653.446 165.413 650.315 165.413C647.183 165.413 644.645 167.233 644.645 169.478Z" fill="#682D87"/>
<path d="M647.5 169.478C647.5 170.593 648.761 171.496 650.316 171.496C651.872 171.496 653.133 170.593 653.133 169.478C653.133 168.362 651.872 167.459 650.316 167.459C648.761 167.459 647.5 168.362 647.5 169.478Z" fill="#D695FA"/>
</g>
</g>
</g>
</g>
<mask id="mask40_1827_368" style="mask-type:luminance" maskUnits="userSpaceOnUse" x="849" y="83" width="15" height="11">
<path d="M849.02 93.6914H863.695V83.1715H849.02V93.6914Z" fill="white"/>
</mask>
<g mask="url(#mask40_1827_368)">
<mask id="mask41_1827_368" style="mask-type:luminance" maskUnits="userSpaceOnUse" x="849" y="83" width="15" height="11">
<path d="M849.02 93.6914H863.696V83.1715H849.02V93.6914Z" fill="white"/>
</mask>
<g mask="url(#mask41_1827_368)">
<g opacity="0.5">
<mask id="mask42_1827_368" style="mask-type:luminance" maskUnits="userSpaceOnUse" x="849" y="83" width="15" height="11">
<path d="M849.02 93.6914H863.695V83.1715H849.02V93.6914Z" fill="white"/>
</mask>
<g mask="url(#mask42_1827_368)">
<path d="M849.02 88.432C849.02 91.3365 852.305 93.6914 856.357 93.6914C860.412 93.6914 863.696 91.3365 863.696 88.432C863.696 85.5285 860.412 83.1725 856.357 83.1725C852.305 83.1725 849.02 85.5285 849.02 88.432Z" fill="#682D87"/>
<path d="M852.711 88.4339C852.711 89.8771 854.343 91.0469 856.356 91.0469C858.368 91.0469 860 89.8771 860 88.4339C860 86.9907 858.368 85.8208 856.356 85.8208C854.343 85.8208 852.711 86.9907 852.711 88.4339Z" fill="#D695FA"/>
</g>
</g>
</g>
</g>
<mask id="mask43_1827_368" style="mask-type:luminance" maskUnits="userSpaceOnUse" x="1166" y="593" width="12" height="9">
<path d="M1166.31 601.602H1177.65V593.473H1166.31V601.602Z" fill="white"/>
</mask>
<g mask="url(#mask43_1827_368)">
<mask id="mask44_1827_368" style="mask-type:luminance" maskUnits="userSpaceOnUse" x="1166" y="593" width="12" height="9">
<path d="M1166.31 601.602H1177.65V593.473H1166.31V601.602Z" fill="white"/>
</mask>
<g mask="url(#mask44_1827_368)">
<mask id="mask45_1827_368" style="mask-type:luminance" maskUnits="userSpaceOnUse" x="1166" y="593" width="12" height="9">
<path d="M1166.31 601.602H1177.65V593.473H1166.31V601.602Z" fill="white"/>
</mask>
<g mask="url(#mask45_1827_368)">
<path d="M1166.31 597.538C1166.31 599.783 1168.85 601.602 1171.98 601.602C1175.11 601.602 1177.65 599.783 1177.65 597.538C1177.65 595.292 1175.11 593.473 1171.98 593.473C1168.85 593.473 1166.31 595.292 1166.31 597.538Z" fill="#682D87"/>
<path d="M1169.16 597.537C1169.16 598.651 1170.42 599.555 1171.98 599.555C1173.53 599.555 1174.79 598.651 1174.79 597.537C1174.79 596.422 1173.53 595.519 1171.98 595.519C1170.42 595.519 1169.16 596.422 1169.16 597.537Z" fill="#D695FA"/>
</g>
</g>
</g>
<mask id="mask46_1827_368" style="mask-type:luminance" maskUnits="userSpaceOnUse" x="172" y="16" width="16" height="11">
<path d="M172.691 26.6523H187.367V16.1325H172.691V26.6523Z" fill="white"/>
</mask>
<g mask="url(#mask46_1827_368)">
<mask id="mask47_1827_368" style="mask-type:luminance" maskUnits="userSpaceOnUse" x="172" y="16" width="16" height="11">
<path d="M172.691 26.6523H187.367V16.1325H172.691V26.6523Z" fill="white"/>
</mask>
<g mask="url(#mask47_1827_368)">
<mask id="mask48_1827_368" style="mask-type:luminance" maskUnits="userSpaceOnUse" x="172" y="16" width="16" height="11">
<path d="M172.691 26.6523H187.367V16.1325H172.691V26.6523Z" fill="white"/>
</mask>
<g mask="url(#mask48_1827_368)">
<path d="M187.367 21.3929C187.367 24.2974 184.082 26.6523 180.03 26.6523C175.977 26.6523 172.691 24.2974 172.691 21.3929C172.691 18.4883 175.977 16.1335 180.03 16.1335C184.082 16.1335 187.367 18.4883 187.367 21.3929Z" fill="#682D87"/>
<path d="M183.672 21.3948C183.672 22.838 182.04 24.0078 180.027 24.0078C178.015 24.0078 176.383 22.838 176.383 21.3948C176.383 19.9516 178.015 18.7818 180.027 18.7818C182.04 18.7818 183.672 19.9516 183.672 21.3948Z" fill="#D695FA"/>
</g>
</g>
</g>
<mask id="mask49_1827_368" style="mask-type:luminance" maskUnits="userSpaceOnUse" x="975" y="10" width="15" height="12">
<path d="M975.07 21.3906H989.746V10.8708H975.07V21.3906Z" fill="white"/>
</mask>
<g mask="url(#mask49_1827_368)">
<mask id="mask50_1827_368" style="mask-type:luminance" maskUnits="userSpaceOnUse" x="975" y="10" width="15" height="12">
<path d="M975.07 21.3906H989.746V10.8708H975.07V21.3906Z" fill="white"/>
</mask>
<g mask="url(#mask50_1827_368)">
<mask id="mask51_1827_368" style="mask-type:luminance" maskUnits="userSpaceOnUse" x="975" y="10" width="15" height="12">
<path d="M975.07 21.3906H989.746V10.8708H975.07V21.3906Z" fill="white"/>
</mask>
<g mask="url(#mask51_1827_368)">
<path d="M989.746 16.1312C989.746 19.0357 986.461 21.3906 982.409 21.3906C978.356 21.3906 975.07 19.0357 975.07 16.1312C975.07 13.2267 978.356 10.8717 982.409 10.8717C986.461 10.8717 989.746 13.2267 989.746 16.1312Z" fill="#682D87"/>
<path d="M986.055 16.1331C986.055 17.5763 984.423 18.7461 982.41 18.7461C980.398 18.7461 978.766 17.5763 978.766 16.1331C978.766 14.6899 980.398 13.52 982.41 13.52C984.423 13.52 986.055 14.6899 986.055 16.1331Z" fill="#D695FA"/>
</g>
</g>
</g>
<mask id="mask52_1827_368" style="mask-type:luminance" maskUnits="userSpaceOnUse" x="2329" y="10" width="8" height="7">
<path d="M2329.16 16.1328H2336.51V10.8725H2329.16V16.1328Z" fill="white"/>
</mask>
<g mask="url(#mask52_1827_368)">
<mask id="mask53_1827_368" style="mask-type:luminance" maskUnits="userSpaceOnUse" x="2329" y="10" width="8" height="7">
<path d="M2329.16 16.1328H2336.51V10.8724H2329.16V16.1328Z" fill="white"/>
</mask>
<g mask="url(#mask53_1827_368)">
<mask id="mask54_1827_368" style="mask-type:luminance" maskUnits="userSpaceOnUse" x="2329" y="10" width="8" height="7">
<path d="M2329.16 16.1328H2336.51V10.8725H2329.16V16.1328Z" fill="white"/>
</mask>
<g mask="url(#mask54_1827_368)">
<path d="M2336.51 13.5026C2336.51 14.9553 2334.85 16.1328 2332.83 16.1328C2330.8 16.1328 2329.16 14.9553 2329.16 13.5026C2329.16 12.0498 2330.8 10.8724 2332.83 10.8724C2334.85 10.8724 2336.51 12.0498 2336.51 13.5026Z" fill="#682D87"/>
<path d="M2334.66 13.5021C2334.66 14.2237 2333.84 14.8086 2332.83 14.8086C2331.83 14.8086 2331.02 14.2237 2331.02 13.5021C2331.02 12.7805 2331.83 12.1956 2332.83 12.1956C2333.84 12.1956 2334.66 12.7805 2334.66 13.5021Z" fill="#D695FA"/>
</g>
</g>
</g>
<mask id="mask55_1827_368" style="mask-type:luminance" maskUnits="userSpaceOnUse" x="1223" y="144" width="8" height="6">
<path d="M1223.29 149.469H1230.62V144.209H1223.29V149.469Z" fill="white"/>
</mask>
<g mask="url(#mask55_1827_368)">
<mask id="mask56_1827_368" style="mask-type:luminance" maskUnits="userSpaceOnUse" x="1223" y="144" width="8" height="6">
<path d="M1223.29 149.469H1230.62V144.209H1223.29V149.469Z" fill="white"/>
</mask>
<g mask="url(#mask56_1827_368)">
<mask id="mask57_1827_368" style="mask-type:luminance" maskUnits="userSpaceOnUse" x="1223" y="144" width="8" height="6">
<path d="M1223.29 149.469H1230.62V144.209H1223.29V149.469Z" fill="white"/>
</mask>
<g mask="url(#mask57_1827_368)">
<path d="M1230.62 146.839C1230.62 148.291 1228.98 149.469 1226.95 149.469C1224.93 149.469 1223.29 148.291 1223.29 146.839C1223.29 145.385 1224.93 144.208 1226.95 144.208C1228.98 144.208 1230.62 145.385 1230.62 146.839Z" fill="#682D87"/>
<path d="M1228.77 146.838C1228.77 147.559 1227.96 148.145 1226.95 148.145C1225.94 148.145 1225.13 147.559 1225.13 146.838C1225.13 146.116 1225.94 145.532 1226.95 145.532C1227.96 145.532 1228.77 146.116 1228.77 146.838Z" fill="#D695FA"/>
</g>
</g>
</g>
<mask id="mask58_1827_368" style="mask-type:luminance" maskUnits="userSpaceOnUse" x="2378" y="376" width="7" height="5">
<path d="M2378.75 380.125H2384.41V376.061H2378.75V380.125Z" fill="white"/>
</mask>
<g mask="url(#mask58_1827_368)">
<mask id="mask59_1827_368" style="mask-type:luminance" maskUnits="userSpaceOnUse" x="2378" y="376" width="7" height="5">
<path d="M2378.75 380.125H2384.41V376.061H2378.75V380.125Z" fill="white"/>
</mask>
<g mask="url(#mask59_1827_368)">
<mask id="mask60_1827_368" style="mask-type:luminance" maskUnits="userSpaceOnUse" x="2378" y="376" width="7" height="5">
<path d="M2378.75 380.125H2384.41V376.061H2378.75V380.125Z" fill="white"/>
</mask>
<g mask="url(#mask60_1827_368)">
<path d="M2384.41 378.093C2384.41 379.215 2383.15 380.125 2381.59 380.125C2380.01 380.125 2378.75 379.215 2378.75 378.093C2378.75 376.971 2380.01 376.061 2381.59 376.061C2383.15 376.061 2384.41 376.971 2384.41 378.093Z" fill="#682D87"/>
<path d="M2382.99 378.092C2382.99 378.649 2382.36 379.102 2381.59 379.102C2380.8 379.102 2380.17 378.649 2380.17 378.092C2380.17 377.535 2380.8 377.083 2381.59 377.083C2382.36 377.083 2382.99 377.535 2382.99 378.092Z" fill="#D695FA"/>
</g>
</g>
</g>
<mask id="mask61_1827_368" style="mask-type:luminance" maskUnits="userSpaceOnUse" x="345" y="49" width="7" height="5">
<path d="M345.594 53.6484H351.264V49.5839H345.594V53.6484Z" fill="white"/>
</mask>
<g mask="url(#mask61_1827_368)">
<mask id="mask62_1827_368" style="mask-type:luminance" maskUnits="userSpaceOnUse" x="345" y="49" width="7" height="5">
<path d="M345.594 53.6484H351.264V49.5836H345.594V53.6484Z" fill="white"/>
</mask>
<g mask="url(#mask62_1827_368)">
<mask id="mask63_1827_368" style="mask-type:luminance" maskUnits="userSpaceOnUse" x="345" y="49" width="7" height="5">
<path d="M345.594 53.6484H351.264V49.5839H345.594V53.6484Z" fill="white"/>
</mask>
<g mask="url(#mask63_1827_368)">
<path d="M351.264 51.6165C351.264 52.7385 349.995 53.6484 348.43 53.6484C346.863 53.6484 345.594 52.7385 345.594 51.6165C345.594 50.4944 346.863 49.5846 348.43 49.5846C349.995 49.5846 351.264 50.4944 351.264 51.6165Z" fill="#682D87"/>
<path d="M349.839 51.6157C349.839 52.1729 349.209 52.625 348.431 52.625C347.653 52.625 347.023 52.1729 347.023 51.6157C347.023 51.0585 347.653 50.6065 348.431 50.6065C349.209 50.6065 349.839 51.0585 349.839 51.6157Z" fill="#D695FA"/>
</g>
</g>
</g>
<mask id="mask64_1827_368" style="mask-type:luminance" maskUnits="userSpaceOnUse" x="1309" y="537" width="16" height="12">
<path d="M1309.67 548.492H1324.34V537.972H1309.67V548.492Z" fill="white"/>
</mask>
<g mask="url(#mask64_1827_368)">
<mask id="mask65_1827_368" style="mask-type:luminance" maskUnits="userSpaceOnUse" x="1309" y="537" width="16" height="12">
<path d="M1309.67 548.492H1324.34V537.972H1309.67V548.492Z" fill="white"/>
</mask>
<g mask="url(#mask65_1827_368)">
<mask id="mask66_1827_368" style="mask-type:luminance" maskUnits="userSpaceOnUse" x="1309" y="537" width="16" height="12">
<path d="M1309.67 548.492H1324.34V537.972H1309.67V548.492Z" fill="white"/>
</mask>
<g mask="url(#mask66_1827_368)">
<path d="M1309.67 543.233C1309.67 546.137 1312.95 548.492 1317.01 548.492C1321.06 548.492 1324.34 546.137 1324.34 543.233C1324.34 540.328 1321.06 537.973 1317.01 537.973C1312.95 537.973 1309.67 540.328 1309.67 543.233Z" fill="#682D87"/>
<path d="M1313.36 543.235C1313.36 544.678 1314.99 545.848 1317 545.848C1319.02 545.848 1320.65 544.678 1320.65 543.235C1320.65 541.791 1319.02 540.622 1317 540.622C1314.99 540.622 1313.36 541.791 1313.36 543.235Z" fill="#D695FA"/>
</g>
</g>
</g>
<mask id="mask67_1827_368" style="mask-type:luminance" maskUnits="userSpaceOnUse" x="1174" y="8" width="7" height="5">
<path d="M1174.81 12.1953H1180.48V8.13153H1174.81V12.1953Z" fill="white"/>
</mask>
<g mask="url(#mask67_1827_368)">
<mask id="mask68_1827_368" style="mask-type:luminance" maskUnits="userSpaceOnUse" x="1174" y="8" width="7" height="5">
<path d="M1174.81 12.1953H1180.48V8.13153H1174.81V12.1953Z" fill="white"/>
</mask>
<g mask="url(#mask68_1827_368)">
<mask id="mask69_1827_368" style="mask-type:luminance" maskUnits="userSpaceOnUse" x="1174" y="8" width="7" height="5">
<path d="M1174.81 12.1953H1180.48V8.13153H1174.81V12.1953Z" fill="white"/>
</mask>
<g mask="url(#mask69_1827_368)">
<path d="M1174.81 10.1634C1174.81 11.2855 1176.08 12.1953 1177.65 12.1953C1179.21 12.1953 1180.48 11.2855 1180.48 10.1634C1180.48 9.04138 1179.21 8.13153 1177.65 8.13153C1176.08 8.13153 1174.81 9.04138 1174.81 10.1634Z" fill="#682D87"/>
<path d="M1176.24 10.1627C1176.24 10.7198 1176.87 11.1719 1177.65 11.1719C1178.43 11.1719 1179.05 10.7198 1179.05 10.1627C1179.05 9.60545 1178.43 9.15333 1177.65 9.15333C1176.87 9.15333 1176.24 9.60545 1176.24 10.1627Z" fill="#D695FA"/>
</g>
</g>
</g>
<mask id="mask70_1827_368" style="mask-type:luminance" maskUnits="userSpaceOnUse" x="1357" y="619" width="12" height="9">
<path d="M1357.47 627.699H1368.82V619.571H1357.47V627.699Z" fill="white"/>
</mask>
<g mask="url(#mask70_1827_368)">
<mask id="mask71_1827_368" style="mask-type:luminance" maskUnits="userSpaceOnUse" x="1357" y="619" width="12" height="9">
<path d="M1357.47 627.699H1368.82V619.571H1357.47V627.699Z" fill="white"/>
</mask>
<g mask="url(#mask71_1827_368)">
<mask id="mask72_1827_368" style="mask-type:luminance" maskUnits="userSpaceOnUse" x="1357" y="619" width="12" height="9">
<path d="M1357.47 627.699H1368.82V619.571H1357.47V627.699Z" fill="white"/>
</mask>
<g mask="url(#mask72_1827_368)">
<path d="M1357.47 623.635C1357.47 625.879 1360.02 627.699 1363.14 627.699C1366.27 627.699 1368.82 625.879 1368.82 623.635C1368.82 621.389 1366.27 619.57 1363.14 619.57C1360.02 619.57 1357.47 621.389 1357.47 623.635Z" fill="#682D87"/>
<path d="M1360.32 623.635C1360.32 624.749 1361.59 625.652 1363.13 625.652C1364.69 625.652 1365.96 624.749 1365.96 623.635C1365.96 622.518 1364.69 621.615 1363.13 621.615C1361.59 621.615 1360.32 622.518 1360.32 623.635Z" fill="#D695FA"/>
</g>
</g>
</g>
<mask id="mask73_1827_368" style="mask-type:luminance" maskUnits="userSpaceOnUse" x="976" y="623" width="7" height="5">
<path d="M976.738 627.688H982.408V623.623H976.738V627.688Z" fill="white"/>
</mask>
<g mask="url(#mask73_1827_368)">
<mask id="mask74_1827_368" style="mask-type:luminance" maskUnits="userSpaceOnUse" x="976" y="623" width="7" height="5">
<path d="M976.738 627.688H982.408V623.623H976.738V627.688Z" fill="white"/>
</mask>
<g mask="url(#mask74_1827_368)">
<mask id="mask75_1827_368" style="mask-type:luminance" maskUnits="userSpaceOnUse" x="976" y="623" width="7" height="5">
<path d="M976.738 627.688H982.408V623.623H976.738V627.688Z" fill="white"/>
</mask>
<g mask="url(#mask75_1827_368)">
<path d="M982.409 625.656C982.409 626.778 981.141 627.688 979.576 627.688C978.009 627.688 976.738 626.778 976.738 625.656C976.738 624.534 978.009 623.624 979.576 623.624C981.141 623.624 982.409 624.534 982.409 625.656Z" fill="#682D87"/>
<path d="M980.984 625.655C980.984 626.212 980.355 626.664 979.576 626.664C978.797 626.664 978.168 626.212 978.168 625.655C978.168 625.098 978.797 624.646 979.576 624.646C980.355 624.646 980.984 625.098 980.984 625.655Z" fill="#D695FA"/>
</g>
</g>
</g>
<mask id="mask76_1827_368" style="mask-type:luminance" maskUnits="userSpaceOnUse" x="2295" y="121" width="7" height="5">
<path d="M2295.98 125.504H2301.66V121.44H2295.98V125.504Z" fill="white"/>
</mask>
<g mask="url(#mask76_1827_368)">
<mask id="mask77_1827_368" style="mask-type:luminance" maskUnits="userSpaceOnUse" x="2295" y="121" width="7" height="5">
<path d="M2295.98 125.504H2301.66V121.44H2295.98V125.504Z" fill="white"/>
</mask>
<g mask="url(#mask77_1827_368)">
<mask id="mask78_1827_368" style="mask-type:luminance" maskUnits="userSpaceOnUse" x="2295" y="121" width="7" height="5">
<path d="M2295.98 125.504H2301.66V121.44H2295.98V125.504Z" fill="white"/>
</mask>
<g mask="url(#mask78_1827_368)">
<path d="M2301.66 123.472C2301.66 124.594 2300.38 125.504 2298.82 125.504C2297.25 125.504 2295.98 124.594 2295.98 123.472C2295.98 122.35 2297.25 121.44 2298.82 121.44C2300.38 121.44 2301.66 122.35 2301.66 123.472Z" fill="#682D87"/>
<path d="M2300.24 123.471C2300.24 124.028 2299.6 124.48 2298.82 124.48C2298.05 124.48 2297.41 124.028 2297.41 123.471C2297.41 122.914 2298.05 122.462 2298.82 122.462C2299.6 122.462 2300.24 122.914 2300.24 123.471Z" fill="#D695FA"/>
</g>
</g>
</g>
<mask id="mask79_1827_368" style="mask-type:luminance" maskUnits="userSpaceOnUse" x="2113" y="9" width="9" height="6">
<path d="M2113.68 14.8242H2121.01V9.56464H2113.68V14.8242Z" fill="white"/>
</mask>
<g mask="url(#mask79_1827_368)">
<mask id="mask80_1827_368" style="mask-type:luminance" maskUnits="userSpaceOnUse" x="2113" y="9" width="9" height="6">
<path d="M2113.68 14.8242H2121.01V9.56482H2113.68V14.8242Z" fill="white"/>
</mask>
<g mask="url(#mask80_1827_368)">
<mask id="mask81_1827_368" style="mask-type:luminance" maskUnits="userSpaceOnUse" x="2113" y="9" width="9" height="6">
<path d="M2113.68 14.8242H2121.01V9.56464H2113.68V14.8242Z" fill="white"/>
</mask>
<g mask="url(#mask81_1827_368)">
<path d="M2121.01 12.1941C2121.01 13.6468 2119.37 14.8242 2117.35 14.8242C2115.32 14.8242 2113.68 13.6468 2113.68 12.1941C2113.68 10.7413 2115.32 9.56389 2117.35 9.56389C2119.37 9.56389 2121.01 10.7413 2121.01 12.1941Z" fill="#682D87"/>
<path d="M2119.17 12.1935C2119.17 12.9151 2118.36 13.5 2117.35 13.5C2116.35 13.5 2115.52 12.9151 2115.52 12.1935C2115.52 11.4719 2116.35 10.887 2117.35 10.887C2118.36 10.887 2119.17 11.4719 2119.17 12.1935Z" fill="#D695FA"/>
</g>
</g>
</g>
<mask id="mask82_1827_368" style="mask-type:luminance" maskUnits="userSpaceOnUse" x="638" y="4" width="13" height="9">
<path d="M638.977 12.1953H650.318V4.06663H638.977V12.1953Z" fill="white"/>
</mask>
<g mask="url(#mask82_1827_368)">
<mask id="mask83_1827_368" style="mask-type:luminance" maskUnits="userSpaceOnUse" x="638" y="4" width="13" height="9">
<path d="M638.977 12.1953H650.318V4.06672H638.977V12.1953Z" fill="white"/>
</mask>
<g mask="url(#mask83_1827_368)">
<mask id="mask84_1827_368" style="mask-type:luminance" maskUnits="userSpaceOnUse" x="638" y="4" width="13" height="9">
<path d="M638.977 12.1953H650.318V4.06663H638.977V12.1953Z" fill="white"/>
</mask>
<g mask="url(#mask84_1827_368)">
<path d="M650.317 8.13153C650.317 10.3756 647.778 12.1953 644.646 12.1953C641.515 12.1953 638.977 10.3756 638.977 8.13153C638.977 5.88553 641.515 4.06672 644.646 4.06672C647.778 4.06672 650.317 5.88553 650.317 8.13153Z" fill="#682D87"/>
<path d="M647.461 8.13092C647.461 9.24532 646.201 10.1484 644.647 10.1484C643.091 10.1484 641.828 9.24532 641.828 8.13092C641.828 7.01461 643.091 6.11238 644.647 6.11238C646.201 6.11238 647.461 7.01461 647.461 8.13092Z" fill="#D695FA"/>
</g>
</g>
</g>
<mask id="mask85_1827_368" style="mask-type:luminance" maskUnits="userSpaceOnUse" x="1475" y="0" width="12" height="9">
<path d="M1475.49 8.12891H1486.83V-0.000896332H1475.49V8.12891Z" fill="white"/>
</mask>
<g mask="url(#mask85_1827_368)">
<mask id="mask86_1827_368" style="mask-type:luminance" maskUnits="userSpaceOnUse" x="1475" y="0" width="12" height="9">
<path d="M1475.49 8.12891H1486.83V-0.000708396H1475.49V8.12891Z" fill="white"/>
</mask>
<g mask="url(#mask86_1827_368)">
<mask id="mask87_1827_368" style="mask-type:luminance" maskUnits="userSpaceOnUse" x="1475" y="0" width="12" height="9">
<path d="M1475.49 8.12891H1486.83V-0.000896332H1475.49V8.12891Z" fill="white"/>
</mask>
<g mask="url(#mask87_1827_368)">
<path d="M1486.83 4.0641C1486.83 6.30914 1484.29 8.12891 1481.16 8.12891C1478.03 8.12891 1475.49 6.30914 1475.49 4.0641C1475.49 1.81906 1478.03 -0.000708396 1481.16 -0.000708396C1484.29 -0.000708396 1486.83 1.81906 1486.83 4.0641Z" fill="#682D87"/>
<path d="M1483.97 4.06349C1483.97 5.17884 1482.7 6.08203 1481.16 6.08203C1479.6 6.08203 1478.34 5.17884 1478.34 4.06349C1478.34 2.94813 1479.6 2.04494 1481.16 2.04494C1482.7 2.04494 1483.97 2.94813 1483.97 4.06349Z" fill="#D695FA"/>
</g>
</g>
</g>
<mask id="mask88_1827_368" style="mask-type:luminance" maskUnits="userSpaceOnUse" x="1116" y="502" width="12" height="9">
<path d="M1116.51 510.758H1127.85V502.629H1116.51V510.758Z" fill="white"/>
</mask>
<g mask="url(#mask88_1827_368)">
<mask id="mask89_1827_368" style="mask-type:luminance" maskUnits="userSpaceOnUse" x="1116" y="502" width="12" height="9">
<path d="M1116.51 510.758H1127.85V502.629H1116.51V510.758Z" fill="white"/>
</mask>
<g mask="url(#mask89_1827_368)">
<mask id="mask90_1827_368" style="mask-type:luminance" maskUnits="userSpaceOnUse" x="1116" y="502" width="12" height="9">
<path d="M1116.51 510.758H1127.85V502.629H1116.51V510.758Z" fill="white"/>
</mask>
<g mask="url(#mask90_1827_368)">
<path d="M1127.85 506.693C1127.85 508.938 1125.31 510.758 1122.18 510.758C1119.05 510.758 1116.51 508.938 1116.51 506.693C1116.51 504.448 1119.05 502.628 1122.18 502.628C1125.31 502.628 1127.85 504.448 1127.85 506.693Z" fill="#682D87"/>
<path d="M1124.99 506.692C1124.99 507.808 1123.73 508.711 1122.18 508.711C1120.62 508.711 1119.36 507.808 1119.36 506.692C1119.36 505.577 1120.62 504.674 1122.18 504.674C1123.73 504.674 1124.99 505.577 1124.99 506.692Z" fill="#D695FA"/>
</g>
</g>
</g>
<mask id="mask91_1827_368" style="mask-type:luminance" maskUnits="userSpaceOnUse" x="2403" y="175" width="12" height="9">
<path d="M2403.41 183.352H2414.75V175.223H2403.41V183.352Z" fill="white"/>
</mask>
<g mask="url(#mask91_1827_368)">
<mask id="mask92_1827_368" style="mask-type:luminance" maskUnits="userSpaceOnUse" x="2403" y="175" width="12" height="9">
<path d="M2403.41 183.352H2414.75V175.223H2403.41V183.352Z" fill="white"/>
</mask>
<g mask="url(#mask92_1827_368)">
<mask id="mask93_1827_368" style="mask-type:luminance" maskUnits="userSpaceOnUse" x="2403" y="175" width="12" height="9">
<path d="M2403.41 183.352H2414.75V175.223H2403.41V183.352Z" fill="white"/>
</mask>
<g mask="url(#mask93_1827_368)">
<path d="M2414.75 179.287C2414.75 181.532 2412.21 183.352 2409.08 183.352C2405.95 183.352 2403.41 181.532 2403.41 179.287C2403.41 177.042 2405.95 175.222 2409.08 175.222C2412.21 175.222 2414.75 177.042 2414.75 179.287Z" fill="#682D87"/>
<path d="M2411.89 179.286C2411.89 180.401 2410.64 181.305 2409.08 181.305C2407.53 181.305 2406.27 180.401 2406.27 179.286C2406.27 178.171 2407.53 177.268 2409.08 177.268C2410.64 177.268 2411.89 178.171 2411.89 179.286Z" fill="#D695FA"/>
</g>
</g>
</g>
<mask id="mask94_1827_368" style="mask-type:luminance" maskUnits="userSpaceOnUse" x="136" y="471" width="15" height="11">
<path d="M136.164 481.75H150.84V471.23H136.164V481.75Z" fill="white"/>
</mask>
<g mask="url(#mask94_1827_368)">
<mask id="mask95_1827_368" style="mask-type:luminance" maskUnits="userSpaceOnUse" x="136" y="471" width="15" height="11">
<path d="M136.164 481.75H150.84V471.23H136.164V481.75Z" fill="white"/>
</mask>
<g mask="url(#mask95_1827_368)">
<mask id="mask96_1827_368" style="mask-type:luminance" maskUnits="userSpaceOnUse" x="136" y="471" width="15" height="11">
<path d="M136.164 481.75H150.84V471.23H136.164V481.75Z" fill="white"/>
</mask>
<g mask="url(#mask96_1827_368)">
<path d="M150.841 476.491C150.841 479.395 147.555 481.75 143.504 481.75C139.451 481.75 136.164 479.395 136.164 476.491C136.164 473.587 139.451 471.232 143.504 471.232C147.555 471.232 150.841 473.587 150.841 476.491Z" fill="#682D87"/>
<path d="M147.149 476.492C147.149 477.936 145.517 479.105 143.503 479.105C141.491 479.105 139.859 477.936 139.859 476.492C139.859 475.049 141.491 473.879 143.503 473.879C145.517 473.879 147.149 475.049 147.149 476.492Z" fill="#D695FA"/>
</g>
</g>
</g>
<mask id="mask97_1827_368" style="mask-type:luminance" maskUnits="userSpaceOnUse" x="237" y="124" width="13" height="9">
<path d="M237.754 132.695H249.094V124.567H237.754V132.695Z" fill="white"/>
</mask>
<g mask="url(#mask97_1827_368)">
<mask id="mask98_1827_368" style="mask-type:luminance" maskUnits="userSpaceOnUse" x="237" y="124" width="13" height="9">
<path d="M237.754 132.695H249.094V124.567H237.754V132.695Z" fill="white"/>
</mask>
<g mask="url(#mask98_1827_368)">
<mask id="mask99_1827_368" style="mask-type:luminance" maskUnits="userSpaceOnUse" x="237" y="124" width="13" height="9">
<path d="M237.754 132.695H249.094V124.567H237.754V132.695Z" fill="white"/>
</mask>
<g mask="url(#mask99_1827_368)">
<path d="M249.094 128.631C249.094 130.876 246.557 132.695 243.423 132.695C240.293 132.695 237.754 130.876 237.754 128.631C237.754 126.385 240.293 124.566 243.423 124.566C246.557 124.566 249.094 126.385 249.094 128.631Z" fill="#682D87"/>
<path d="M246.239 128.63C246.239 129.745 244.977 130.648 243.423 130.648C241.867 130.648 240.605 129.745 240.605 128.63C240.605 127.515 241.867 126.611 243.423 126.611C244.977 126.611 246.239 127.515 246.239 128.63Z" fill="#D695FA"/>
</g>
</g>
</g>
<path d="M694.468 546.204C694.468 548.548 691.817 550.449 688.546 550.449C685.274 550.449 682.625 548.548 682.625 546.204C682.625 543.859 685.274 541.959 688.546 541.959C691.817 541.959 694.468 543.859 694.468 546.204Z" fill="white"/>
<path d="M0 633.999V903.027H2560L2558.99 633.999C1698.69 667.083 845.536 667.783 0 633.999Z" fill="url(#paint0_linear_1827_368)"/>
<defs>
<linearGradient id="paint0_linear_1827_368" x1="1280" y1="929.492" x2="1280" y2="699.016" gradientUnits="userSpaceOnUse">
<stop stop-color="#682D87"/>
<stop offset="1" stop-color="#2F005B"/>
</linearGradient>
</defs>
</svg>
